<mxfile host="Electron" modified="2024-08-01T03:07:16.081Z" agent="Mozilla/5.0 (X11; Linux x86_64) AppleWebKit/537.36 (KHTML, like Gecko) draw.io/24.5.3 Chrome/124.0.6367.207 Electron/30.0.6 Safari/537.36" etag="te52tnFR3Hpz0YGqyu8W" version="24.5.3" type="device">
  <diagram name="Page-1" id="RhQuIHbkrNwRxllHBiKT">
    <mxGraphModel dx="943" dy="578" grid="1" gridSize="10" guides="1" tooltips="1" connect="1" arrows="1" fold="1" page="1" pageScale="1" pageWidth="850" pageHeight="1100" math="0" shadow="0">
      <root>
        <mxCell id="0" />
        <mxCell id="1" parent="0" />
        <mxCell id="Sxg9vAeQzo1UGuNZ-Eux-1" value="User" style="swimlane;fontStyle=1;align=center;verticalAlign=top;childLayout=stackLayout;horizontal=1;startSize=26;horizontalStack=0;resizeParent=1;resizeParentMax=0;resizeLast=0;collapsible=1;marginBottom=0;whiteSpace=wrap;html=1;" vertex="1" parent="1">
          <mxGeometry x="310" y="80" width="160" height="240" as="geometry" />
        </mxCell>
        <mxCell id="Sxg9vAeQzo1UGuNZ-Eux-2" value="nome: string&lt;div&gt;email: string&lt;/div&gt;&lt;div&gt;nacumento: date&lt;/div&gt;&lt;div&gt;role: string&lt;/div&gt;&lt;div&gt;ativo: boll&lt;/div&gt;" style="text;strokeColor=none;fillColor=none;align=left;verticalAlign=top;spacingLeft=4;spacingRight=4;overflow=hidden;rotatable=0;points=[[0,0.5],[1,0.5]];portConstraint=eastwest;whiteSpace=wrap;html=1;" vertex="1" parent="Sxg9vAeQzo1UGuNZ-Eux-1">
          <mxGeometry y="26" width="160" height="104" as="geometry" />
        </mxCell>
        <mxCell id="Sxg9vAeQzo1UGuNZ-Eux-3" value="" style="line;strokeWidth=1;fillColor=none;align=left;verticalAlign=middle;spacingTop=-1;spacingLeft=3;spacingRight=3;rotatable=0;labelPosition=right;points=[];portConstraint=eastwest;strokeColor=inherit;" vertex="1" parent="Sxg9vAeQzo1UGuNZ-Eux-1">
          <mxGeometry y="130" width="160" height="8" as="geometry" />
        </mxCell>
        <mxCell id="Sxg9vAeQzo1UGuNZ-Eux-4" value="criarPerfil()&lt;div&gt;apagarPerfil()&lt;/div&gt;&lt;div&gt;exibirInfos()&lt;/div&gt;&lt;div&gt;exibitListaCursos()&lt;/div&gt;&lt;div&gt;matricularEmCurso()&lt;/div&gt;&lt;div&gt;exibirCursosMatriculados()&lt;/div&gt;" style="text;strokeColor=none;fillColor=none;align=left;verticalAlign=top;spacingLeft=4;spacingRight=4;overflow=hidden;rotatable=0;points=[[0,0.5],[1,0.5]];portConstraint=eastwest;whiteSpace=wrap;html=1;" vertex="1" parent="Sxg9vAeQzo1UGuNZ-Eux-1">
          <mxGeometry y="138" width="160" height="102" as="geometry" />
        </mxCell>
        <mxCell id="Sxg9vAeQzo1UGuNZ-Eux-16" style="edgeStyle=orthogonalEdgeStyle;rounded=0;orthogonalLoop=1;jettySize=auto;html=1;entryX=0;entryY=0.5;entryDx=0;entryDy=0;" edge="1" parent="1" source="Sxg9vAeQzo1UGuNZ-Eux-5" target="Sxg9vAeQzo1UGuNZ-Eux-4">
          <mxGeometry relative="1" as="geometry" />
        </mxCell>
        <mxCell id="Sxg9vAeQzo1UGuNZ-Eux-5" value="Admin" style="swimlane;fontStyle=0;childLayout=stackLayout;horizontal=1;startSize=26;fillColor=none;horizontalStack=0;resizeParent=1;resizeParentMax=0;resizeLast=0;collapsible=1;marginBottom=0;whiteSpace=wrap;html=1;" vertex="1" parent="1">
          <mxGeometry x="90" y="360" width="140" height="130" as="geometry" />
        </mxCell>
        <mxCell id="Sxg9vAeQzo1UGuNZ-Eux-6" value="criarPerfil()" style="text;strokeColor=none;fillColor=none;align=left;verticalAlign=top;spacingLeft=4;spacingRight=4;overflow=hidden;rotatable=0;points=[[0,0.5],[1,0.5]];portConstraint=eastwest;whiteSpace=wrap;html=1;" vertex="1" parent="Sxg9vAeQzo1UGuNZ-Eux-5">
          <mxGeometry y="26" width="140" height="26" as="geometry" />
        </mxCell>
        <mxCell id="Sxg9vAeQzo1UGuNZ-Eux-7" value="criarCurso()" style="text;strokeColor=none;fillColor=none;align=left;verticalAlign=top;spacingLeft=4;spacingRight=4;overflow=hidden;rotatable=0;points=[[0,0.5],[1,0.5]];portConstraint=eastwest;whiteSpace=wrap;html=1;" vertex="1" parent="Sxg9vAeQzo1UGuNZ-Eux-5">
          <mxGeometry y="52" width="140" height="26" as="geometry" />
        </mxCell>
        <mxCell id="Sxg9vAeQzo1UGuNZ-Eux-8" value="excluirCurso()" style="text;strokeColor=none;fillColor=none;align=left;verticalAlign=top;spacingLeft=4;spacingRight=4;overflow=hidden;rotatable=0;points=[[0,0.5],[1,0.5]];portConstraint=eastwest;whiteSpace=wrap;html=1;" vertex="1" parent="Sxg9vAeQzo1UGuNZ-Eux-5">
          <mxGeometry y="78" width="140" height="26" as="geometry" />
        </mxCell>
        <mxCell id="Sxg9vAeQzo1UGuNZ-Eux-15" value="desativarPerfil()" style="text;strokeColor=none;fillColor=none;align=left;verticalAlign=top;spacingLeft=4;spacingRight=4;overflow=hidden;rotatable=0;points=[[0,0.5],[1,0.5]];portConstraint=eastwest;whiteSpace=wrap;html=1;" vertex="1" parent="Sxg9vAeQzo1UGuNZ-Eux-5">
          <mxGeometry y="104" width="140" height="26" as="geometry" />
        </mxCell>
        <mxCell id="Sxg9vAeQzo1UGuNZ-Eux-17" style="edgeStyle=orthogonalEdgeStyle;rounded=0;orthogonalLoop=1;jettySize=auto;html=1;entryX=1;entryY=0.5;entryDx=0;entryDy=0;" edge="1" parent="1" source="Sxg9vAeQzo1UGuNZ-Eux-9" target="Sxg9vAeQzo1UGuNZ-Eux-4">
          <mxGeometry relative="1" as="geometry" />
        </mxCell>
        <mxCell id="Sxg9vAeQzo1UGuNZ-Eux-9" value="Docente" style="swimlane;fontStyle=0;childLayout=stackLayout;horizontal=1;startSize=26;fillColor=none;horizontalStack=0;resizeParent=1;resizeParentMax=0;resizeLast=0;collapsible=1;marginBottom=0;whiteSpace=wrap;html=1;" vertex="1" parent="1">
          <mxGeometry x="570" y="360" width="140" height="104" as="geometry" />
        </mxCell>
        <mxCell id="Sxg9vAeQzo1UGuNZ-Eux-10" value="criarPerfil()" style="text;strokeColor=none;fillColor=none;align=left;verticalAlign=top;spacingLeft=4;spacingRight=4;overflow=hidden;rotatable=0;points=[[0,0.5],[1,0.5]];portConstraint=eastwest;whiteSpace=wrap;html=1;" vertex="1" parent="Sxg9vAeQzo1UGuNZ-Eux-9">
          <mxGeometry y="26" width="140" height="26" as="geometry" />
        </mxCell>
        <mxCell id="Sxg9vAeQzo1UGuNZ-Eux-11" value="aprovarEstudante()" style="text;strokeColor=none;fillColor=none;align=left;verticalAlign=top;spacingLeft=4;spacingRight=4;overflow=hidden;rotatable=0;points=[[0,0.5],[1,0.5]];portConstraint=eastwest;whiteSpace=wrap;html=1;" vertex="1" parent="Sxg9vAeQzo1UGuNZ-Eux-9">
          <mxGeometry y="52" width="140" height="26" as="geometry" />
        </mxCell>
        <mxCell id="Sxg9vAeQzo1UGuNZ-Eux-12" value="reprovarEstudante()" style="text;strokeColor=none;fillColor=none;align=left;verticalAlign=top;spacingLeft=4;spacingRight=4;overflow=hidden;rotatable=0;points=[[0,0.5],[1,0.5]];portConstraint=eastwest;whiteSpace=wrap;html=1;" vertex="1" parent="Sxg9vAeQzo1UGuNZ-Eux-9">
          <mxGeometry y="78" width="140" height="26" as="geometry" />
        </mxCell>
      </root>
    </mxGraphModel>
  </diagram>
</mxfile>
